<svg xmlns="http://www.w3.org/2000/svg" width="101.532" height="117.5" viewBox="0 0 101.532 117.5">
  <g id="Group_604" data-name="Group 604" transform="translate(-173.5 -2583.5)">
    <rect id="Rectangle_194" data-name="Rectangle 194" width="55" height="55" transform="translate(175 2646)" fill="#ffcc48"/>
    <g id="Group_238" data-name="Group 238" transform="translate(-1429.965 3005.805)">
      <line id="Line_27" data-name="Line 27" x2="68.034" transform="translate(1635.463 -364.502)" fill="none" stroke="#000" stroke-linecap="round" stroke-linejoin="round" stroke-width="3"/>
      <path id="Path_547" data-name="Path 547" d="M1681.518-358.974h9.384v7.038" transform="translate(-15.558 -12.566)" fill="none" stroke="#000" stroke-linecap="round" stroke-linejoin="round" stroke-width="3"/>
      <path id="Path_548" data-name="Path 548" d="M1705.073-359.116v-7.038h14.076v-28.152h-11.73" transform="translate(-20.345 -5.385)" fill="none" stroke="#000" stroke-linecap="round" stroke-linejoin="round" stroke-width="3"/>
      <path id="Rectangle_156" data-name="Rectangle 156" d="M0,0H5.841A5.889,5.889,0,0,1,11.73,5.889v28.1a5.889,5.889,0,0,1-5.889,5.889H0a0,0,0,0,1,0,0V0A0,0,0,0,1,0,0Z" transform="translate(1677.691 -420.805)" fill="none" stroke="#000" stroke-linecap="round" stroke-linejoin="round" stroke-width="3"/>
      <line id="Line_28" data-name="Line 28" y2="11.73" transform="translate(1626.079 -329.312)" fill="none" stroke="#000" stroke-linecap="round" stroke-linejoin="round" stroke-width="3"/>
      <path id="Path_549" data-name="Path 549" d="M1630.819-365.508l14.076,9.384h9.384c10.731,0,9.384-11.73,9.384-11.73h-11.73l-16.422-11.729h-9.384a9.384,9.384,0,0,0-9.384,9.384v25.806a14.075,14.075,0,0,0,14.076,14.076h16.422l14.076,25.806h10.669l-11.327-34.373a11.729,11.729,0,0,0-11.071-7.855h-11.73v-14.076" transform="translate(-2.393 -8.377)" stroke="#000" stroke-linecap="round" stroke-linejoin="round" stroke-width="3"/>
      <path id="Path_550" data-name="Path 550" d="M1604.965-373.7v35.19a18.768,18.768,0,0,0,18.768,18.768h16.422" transform="translate(0 -9.574)" fill="none" stroke="#000" stroke-linecap="round" stroke-linejoin="round" stroke-width="3"/>
      <path id="Path_551" data-name="Path 551" d="M1604.965-338.363h18.768l4.692,7.038" transform="translate(0 -16.754)" fill="none" stroke="#000" stroke-linecap="round" stroke-linejoin="round" stroke-width="3"/>
      <path id="Path_552" data-name="Path 552" d="M1641.95-286.562h-9.384l-4.693-4.692-4.691,4.692H1613.8" transform="translate(-1.795 -26.328)" fill="none" stroke="#000" stroke-linecap="round" stroke-linejoin="round" stroke-width="3"/>
      <path id="Path_553" data-name="Path 553" d="M1630.244-394.4a10.273,10.273,0,0,0,10.556-10.054v-3.353a10.273,10.273,0,0,0-10.556-10.054,10.274,10.274,0,0,0-10.557,10.054v3.353A10.274,10.274,0,0,0,1630.244-394.4Z" transform="translate(-2.992 -0.598)" stroke="#000" stroke-linecap="round" stroke-linejoin="round" stroke-width="3"/>
    </g>
  </g>
</svg>
