<svg xmlns="http://www.w3.org/2000/svg" width="137.503" height="104.113" viewBox="0 0 137.503 104.113">
  <g id="Group_598" data-name="Group 598" transform="translate(-600.497 -2591)">
    <rect id="Rectangle_193" data-name="Rectangle 193" width="55" height="55" transform="translate(683 2591)" fill="#ffcc48"/>
    <g id="Group_240" data-name="Group 240" transform="translate(-1046.674 2666.743)">
      <path id="Path_554" data-name="Path 554" d="M1778.874-29.607a5.688,5.688,0,0,0-.88-9.984L1744.63-53.879a75.034,75.034,0,0,0-59.24.463l-34.167,14.992a4.262,4.262,0,0,0-.454,7.573l11.768,6.946a38.334,38.334,0,0,0,39.149-.1h0a34.281,34.281,0,0,1,34.667-.291l.543.312a33.414,33.414,0,0,0,34.974-1.026Z" transform="translate(0 0)" fill="none" stroke="#000" stroke-linecap="round" stroke-miterlimit="10" stroke-width="3"/>
      <line id="Line_29" data-name="Line 29" y1="46.413" transform="translate(1753.343 -19.544)" fill="none" stroke="#000" stroke-linecap="round" stroke-miterlimit="10" stroke-width="3"/>
      <line id="Line_30" data-name="Line 30" y1="39.908" transform="translate(1778.505 -29.017)" fill="none" stroke="#000" stroke-linecap="round" stroke-miterlimit="10" stroke-width="3"/>
      <line id="Line_31" data-name="Line 31" y2="45.219" transform="translate(1678.891 -18.688)" fill="none" stroke="#000" stroke-linecap="round" stroke-miterlimit="10" stroke-width="3"/>
      <line id="Line_32" data-name="Line 32" y2="39.877" transform="translate(1651.565 -29.325)" fill="none" stroke="#000" stroke-linecap="round" stroke-miterlimit="10" stroke-width="3"/>
      <g id="Group_239" data-name="Group 239" transform="translate(1692.686 -48.919)">
        <g id="Path_555" data-name="Path 555" transform="translate(-1698.847 47.404)" stroke-linecap="round" stroke-miterlimit="10">
          <path d="M 1727.85888671875 0.8346853852272034 L 1727.858032226562 0.8346853852272034 L 1727.857177734375 0.8346853852272034 L 1698.846923828125 0.8346853852272034 L 1697.346923828125 0.8346853852272034 L 1697.346923828125 -0.6653146147727966 L 1697.346923828125 -2.276744604110718 C 1697.351196289062 -6.120774745941162 1698.849853515625 -9.73320484161377 1701.567016601562 -12.45023441314697 C 1704.2841796875 -15.16712474822998 1707.896484375 -16.66573524475098 1711.738525390625 -16.66999435424805 C 1718.015258789062 -16.67772483825684 1723.12744140625 -21.78985404968262 1723.13427734375 -28.06577491760254 L 1723.13427734375 -37.73362350463867 C 1723.1376953125 -40.71736526489258 1724.30078125 -43.5207633972168 1726.408935546875 -45.62915420532227 C 1728.517211914062 -47.73753356933594 1731.320434570312 -48.90056610107422 1734.302124023438 -48.90399551391602 L 1737.527587890625 -48.90399551391602 L 1739.027587890625 -48.90399551391602 L 1739.027587890625 -47.40399551391602 L 1739.027587890625 -10.33568477630615 C 1739.024291992188 -7.351954460144043 1737.861206054688 -4.548514842987061 1735.752807617188 -2.44012451171875 C 1733.644409179688 -0.3317646086215973 1730.840942382812 0.8312553763389587 1727.85888671875 0.8346853852272034 Z" stroke="none"/>
          <path d="M 1727.857177734375 -0.6653079390525818 C 1733.195922851562 -0.6714546084403992 1737.521606445312 -4.996974468231201 1737.527587890625 -10.33568096160889 L 1737.527587890625 -47.40400314331055 L 1734.303833007812 -47.40400314331055 C 1728.965942382812 -47.39785385131836 1724.640502929688 -43.07233428955078 1724.63427734375 -37.73362731933594 L 1724.63427734375 -28.06412124633789 C 1724.62646484375 -20.9464282989502 1718.858032226562 -15.1787748336792 1711.740234375 -15.17000102996826 C 1704.623413085938 -15.16210842132568 1698.854736328125 -9.394441604614258 1698.846923828125 -2.276747941970825 L 1698.846923828125 -0.6653079390525818 L 1727.857177734375 -0.6653079390525818 M 1727.860595703125 2.334692001342773 L 1695.846923828125 2.334692001342773 L 1695.846923828125 -2.276747941970825 C 1695.849243164062 -4.423041343688965 1696.271362304688 -6.503334522247314 1697.101684570312 -8.463161468505859 C 1697.902954101562 -10.35472106933594 1699.048461914062 -12.05302810668945 1700.506469726562 -13.51093482971191 C 1701.96435546875 -14.96877479553223 1703.662719726562 -16.11421394348145 1705.55419921875 -16.91542816162109 C 1707.513916015625 -17.74552154541016 1709.594116210938 -18.16762733459473 1711.736938476562 -18.17000198364258 C 1717.188232421875 -18.17672157287598 1721.628295898438 -22.6166820526123 1721.63427734375 -28.06741523742676 L 1721.63427734375 -37.73362731933594 C 1721.63818359375 -41.11910629272461 1722.957275390625 -44.29854965209961 1725.348266601562 -46.68977355957031 C 1727.739379882812 -49.08103942871094 1730.918701171875 -50.40010833740234 1734.300415039062 -50.40400314331055 L 1740.527587890625 -50.40400314331055 L 1740.527587890625 -10.33568096160889 C 1740.523803710938 -6.950227737426758 1739.204711914062 -3.770707845687866 1736.8134765625 -1.379454612731934 C 1734.422241210938 1.011758685112 1731.24267578125 2.330798625946045 1727.860595703125 2.334692001342773 Z" stroke="none" fill="#000"/>
        </g>
        <g id="Path_556" data-name="Path 556" transform="translate(-1703.103 40.601)" fill="none" stroke-linecap="round" stroke-miterlimit="10">
          <path d="M1737.867,8a12.791,12.791,0,0,1-4.362.956l7.115,24.188h1.162Z" stroke="none"/>
          <path d="M 1737.867431640625 8.002002716064453 C 1736.48046875 8.573936462402344 1735.005126953125 8.897636413574219 1733.505859375 8.958156585693359 L 1740.620971679688 33.14637756347656 L 1741.783325195312 33.14637756347656 L 1737.867431640625 8.002002716064453 M 1740.245483398438 3.776313781738281 L 1745.286743164062 36.14637756347656 L 1738.376342773438 36.14637756347656 L 1729.542602539062 6.115699768066406 L 1733.384887695312 5.960601806640625 C 1734.535034179688 5.914169311523438 1735.658447265625 5.667869567871094 1736.723754882812 5.228546142578125 L 1740.245483398438 3.776313781738281 Z" stroke="none" fill="#000"/>
        </g>
        <g id="Path_557" data-name="Path 557" transform="translate(-1699.066 40.471)" fill="none" stroke-linecap="round" stroke-miterlimit="10">
          <path d="M1704.543,9.088c2.281,0,2.862-.061,4.361,0l-7.114,24.188h-1.163Z" stroke="none"/>
          <path d="M 1707.614135742188 9.061332702636719 C 1706.828735351562 9.061332702636719 1706.063232421875 9.088237762451172 1704.542846679688 9.088237762451172 L 1700.626953125 33.27645874023438 L 1701.790161132812 33.27645874023438 L 1708.904296875 9.088237762451172 C 1708.404541015625 9.06805419921875 1708.006958007812 9.061332702636719 1707.614135742188 9.061332702636719 M 1707.614135742188 6.061336517333984 C 1708.087524414062 6.061336517333984 1708.522705078125 6.070381164550781 1709.025268554688 6.090679168701172 L 1712.867309570312 6.245815277099609 L 1704.034912109375 36.27645874023438 L 1697.102172851562 36.27645874023438 L 1701.989501953125 6.088237762451172 L 1704.542846679688 6.088237762451172 C 1705.40576171875 6.088237762451172 1706.007934570312 6.079513549804688 1706.539184570312 6.071823120117188 C 1706.928100585938 6.066204071044922 1707.264038085938 6.061336517333984 1707.614135742188 6.061336517333984 Z" stroke="none" fill="#000"/>
        </g>
        <line id="Line_33" data-name="Line 33" x2="21.633" y2="8.489" transform="translate(10.715 54.036)" fill="none" stroke="#000" stroke-linecap="round" stroke-miterlimit="10" stroke-width="3"/>
        <line id="Line_34" data-name="Line 34" x1="21.551" y2="8.301" transform="translate(8.079 54.036)" fill="none" stroke="#000" stroke-linecap="round" stroke-miterlimit="10" stroke-width="3"/>
      </g>
    </g>
  </g>
</svg>
