<svg xmlns="http://www.w3.org/2000/svg" width="290" height="68.23" viewBox="0 0 290 68.23">
  <g id="Group_586" data-name="Group 586" transform="translate(-1455 -9080.708)">
    <g id="Group_588" data-name="Group 588">
      <g id="Group_575" data-name="Group 575" transform="translate(1455 9080.708)">
        <g id="Group_584" data-name="Group 584" transform="translate(0 29.852)">
          <rect id="Rectangle_248" data-name="Rectangle 248" width="72.497" height="4.264" transform="translate(0 34.115)" fill="#fff"/>
          <rect id="Rectangle_249" data-name="Rectangle 249" width="72.497" height="4.264" transform="translate(0 25.587)" fill="#fff"/>
          <rect id="Rectangle_250" data-name="Rectangle 250" width="72.497" height="4.264" transform="translate(0 17.056)" fill="#fff"/>
          <rect id="Rectangle_251" data-name="Rectangle 251" width="72.497" height="4.264" transform="translate(0 8.528)" fill="#fff"/>
          <rect id="Rectangle_252" data-name="Rectangle 252" width="72.497" height="4.264" fill="#fff"/>
        </g>
        <g id="Group_583" data-name="Group 583" transform="translate(0 0)">
          <rect id="Rectangle_253" data-name="Rectangle 253" width="72.497" height="4.267" transform="translate(0 25.584)"/>
          <rect id="Rectangle_254" data-name="Rectangle 254" width="72.497" height="4.264" transform="translate(0 17.056)"/>
          <rect id="Rectangle_255" data-name="Rectangle 255" width="72.497" height="4.264" transform="translate(0 8.528)"/>
          <rect id="Rectangle_256" data-name="Rectangle 256" width="72.497" height="4.264" transform="translate(0 0)"/>
        </g>
        <rect id="Rectangle_257" data-name="Rectangle 257" width="4.264" height="29.851" transform="translate(72.505 0.001)"/>
        <rect id="Rectangle_273" data-name="Rectangle 273" width="4.264" height="38.379" transform="translate(72.505 29.852)" fill="#fff"/>
        <g id="Group_581" data-name="Group 581" transform="translate(81.033 0)">
          <rect id="Rectangle_258" data-name="Rectangle 258" width="4.264" height="68.23"/>
          <rect id="Rectangle_259" data-name="Rectangle 259" width="4.264" height="68.23" transform="translate(8.528)"/>
          <rect id="Rectangle_260" data-name="Rectangle 260" width="4.264" height="68.23" transform="translate(17.059)"/>
          <rect id="Rectangle_261" data-name="Rectangle 261" width="4.264" height="68.23" transform="translate(25.587)"/>
          <rect id="Rectangle_262" data-name="Rectangle 262" width="4.264" height="68.23" transform="translate(34.115)"/>
          <rect id="Rectangle_263" data-name="Rectangle 263" width="4.262" height="68.23" transform="translate(42.646)"/>
          <rect id="Rectangle_264" data-name="Rectangle 264" width="4.264" height="68.23" transform="translate(51.174)"/>
          <rect id="Rectangle_265" data-name="Rectangle 265" width="4.264" height="68.23" transform="translate(59.703)"/>
        </g>
        <g id="Group_582" data-name="Group 582" transform="translate(81.033 29.852)">
          <rect id="Rectangle_258-2" data-name="Rectangle 258" width="4.264" height="38.378" transform="translate(0 0)" fill="#fff"/>
          <rect id="Rectangle_259-2" data-name="Rectangle 259" width="4.264" height="38.378" transform="translate(8.528 0)" fill="#fff"/>
          <rect id="Rectangle_260-2" data-name="Rectangle 260" width="4.264" height="38.378" transform="translate(17.059 0)" fill="#fff"/>
          <rect id="Rectangle_261-2" data-name="Rectangle 261" width="4.264" height="38.378" transform="translate(25.587 0)" fill="#fff"/>
          <rect id="Rectangle_262-2" data-name="Rectangle 262" width="4.264" height="38.378" transform="translate(34.115 0)" fill="#fff"/>
          <rect id="Rectangle_263-2" data-name="Rectangle 263" width="4.262" height="38.378" transform="translate(42.646 0)" fill="#fff"/>
          <rect id="Rectangle_264-2" data-name="Rectangle 264" width="4.264" height="38.378" transform="translate(51.174 0)" fill="#fff"/>
          <rect id="Rectangle_265-2" data-name="Rectangle 265" width="4.264" height="38.378" transform="translate(59.703 0)" fill="#fff"/>
        </g>
      </g>
      <g id="Group_587" data-name="Group 587" transform="translate(1600 9080.708)">
        <g id="Group_584-2" data-name="Group 584" transform="translate(0 29.852)">
          <rect id="Rectangle_248-2" data-name="Rectangle 248" width="72.497" height="4.264" transform="translate(0 34.115)" fill="#fff"/>
          <rect id="Rectangle_249-2" data-name="Rectangle 249" width="72.497" height="4.264" transform="translate(0 25.587)" fill="#fff"/>
          <rect id="Rectangle_250-2" data-name="Rectangle 250" width="72.497" height="4.264" transform="translate(0 17.056)" fill="#fff"/>
          <rect id="Rectangle_251-2" data-name="Rectangle 251" width="72.497" height="4.264" transform="translate(0 8.528)" fill="#fff"/>
          <rect id="Rectangle_252-2" data-name="Rectangle 252" width="72.497" height="4.264" fill="#fff"/>
        </g>
        <g id="Group_583-2" data-name="Group 583" transform="translate(0 0)">
          <rect id="Rectangle_253-2" data-name="Rectangle 253" width="72.497" height="4.267" transform="translate(0 25.584)"/>
          <rect id="Rectangle_254-2" data-name="Rectangle 254" width="72.497" height="4.264" transform="translate(0 17.056)"/>
          <rect id="Rectangle_255-2" data-name="Rectangle 255" width="72.497" height="4.264" transform="translate(0 8.528)"/>
          <rect id="Rectangle_256-2" data-name="Rectangle 256" width="72.497" height="4.264" transform="translate(0 0)"/>
        </g>
        <rect id="Rectangle_257-2" data-name="Rectangle 257" width="4.264" height="29.851" transform="translate(72.505 0.001)"/>
        <rect id="Rectangle_273-2" data-name="Rectangle 273" width="4.264" height="38.379" transform="translate(72.505 29.852)" fill="#fff"/>
        <g id="Group_581-2" data-name="Group 581" transform="translate(81.033 0)">
          <rect id="Rectangle_258-3" data-name="Rectangle 258" width="4.264" height="68.23"/>
          <rect id="Rectangle_259-3" data-name="Rectangle 259" width="4.264" height="68.23" transform="translate(8.528)"/>
          <rect id="Rectangle_260-3" data-name="Rectangle 260" width="4.264" height="68.23" transform="translate(17.059)"/>
          <rect id="Rectangle_261-3" data-name="Rectangle 261" width="4.264" height="68.23" transform="translate(25.587)"/>
          <rect id="Rectangle_262-3" data-name="Rectangle 262" width="4.264" height="68.23" transform="translate(34.115)"/>
          <rect id="Rectangle_263-3" data-name="Rectangle 263" width="4.262" height="68.23" transform="translate(42.646)"/>
          <rect id="Rectangle_264-3" data-name="Rectangle 264" width="4.264" height="68.23" transform="translate(51.174)"/>
          <rect id="Rectangle_265-3" data-name="Rectangle 265" width="4.264" height="68.23" transform="translate(59.703)"/>
        </g>
        <g id="Group_582-2" data-name="Group 582" transform="translate(81.033 29.852)">
          <rect id="Rectangle_258-4" data-name="Rectangle 258" width="4.264" height="38.378" transform="translate(0 0)" fill="#fff"/>
          <rect id="Rectangle_259-4" data-name="Rectangle 259" width="4.264" height="38.378" transform="translate(8.528 0)" fill="#fff"/>
          <rect id="Rectangle_260-4" data-name="Rectangle 260" width="4.264" height="38.378" transform="translate(17.059 0)" fill="#fff"/>
          <rect id="Rectangle_261-4" data-name="Rectangle 261" width="4.264" height="38.378" transform="translate(25.587 0)" fill="#fff"/>
          <rect id="Rectangle_262-4" data-name="Rectangle 262" width="4.264" height="38.378" transform="translate(34.115 0)" fill="#fff"/>
          <rect id="Rectangle_263-4" data-name="Rectangle 263" width="4.262" height="38.378" transform="translate(42.646 0)" fill="#fff"/>
          <rect id="Rectangle_264-4" data-name="Rectangle 264" width="4.264" height="38.378" transform="translate(51.174 0)" fill="#fff"/>
          <rect id="Rectangle_265-4" data-name="Rectangle 265" width="4.264" height="38.378" transform="translate(59.703 0)" fill="#fff"/>
        </g>
      </g>
    </g>
  </g>
</svg>
