<svg xmlns="http://www.w3.org/2000/svg" width="133" height="104.768" viewBox="0 0 133 104.768">
  <g id="Group_600" data-name="Group 600" transform="translate(-1453.5 -2589.5)">
    <rect id="Rectangle_191" data-name="Rectangle 191" width="55" height="55" transform="translate(1455 2638)" fill="#ffcc48"/>
    <g id="Group_246" data-name="Group 246" transform="translate(89.102 2636.11)">
      <path id="Path_568" data-name="Path 568" d="M1492.4,76.336h29.675V62.347a6.759,6.759,0,0,0-3.108-5.688l-7.756-4.65-5.454,4.027a5.842,5.842,0,0,1-6.27.163l-5.883-4.19-6.718,3.634,2.563,1.978a7.582,7.582,0,0,1,2.951,6Z" transform="translate(-26.174 -21.011)" stroke="#000" stroke-linecap="round" stroke-linejoin="round" stroke-width="3"/>
      <path id="Path_569" data-name="Path 569" d="M1466.761-17.684c-.614-8.322-3.548-15.293-8.485-20.157-4.827-4.754-11.324-7.268-18.791-7.268s-13.965,2.514-18.791,7.268c-4.937,4.864-7.871,11.835-8.485,20.158-1.666,22.557-3.561,35.134-4.3,39.495a.1.1,0,0,0,.052.122,56.138,56.138,0,0,0,14.792,6.689l16.731-3.447,17.713,3.447a46.323,46.323,0,0,0,13.81-6.689.1.1,0,0,0,.051-.122C1470.322,17.45,1468.427,4.872,1466.761-17.684ZM1460.68-4.361c0,11.532-9.025,21.292-20.552,21.634A21.217,21.217,0,0,1,1418.293-3.91V-5.74a2.383,2.383,0,0,1,1.246-2.06l.083-.048a17.306,17.306,0,0,0,8.354-12.668l.306-2.26c16.044,1.6,26.788,7.685,30.791,11.166a4.751,4.751,0,0,1,1.606,3.6Z" transform="translate(-9.089 0)" stroke="#000" stroke-linecap="round" stroke-linejoin="round" stroke-width="3"/>
      <path id="Path_570" data-name="Path 570" d="M1443.121,33.823a27.917,27.917,0,0,0,10.427-2.01v5.759a7.535,7.535,0,0,0,4.489,6.89L1461.53,46a20.7,20.7,0,0,1-36.819,0l3.494-1.543a7.537,7.537,0,0,0,4.489-6.89V31.813a27.914,27.914,0,0,0,10.427,2.01" transform="translate(-12.724 -16.642)" fill="#fff" stroke="#000" stroke-linecap="round" stroke-linejoin="round" stroke-width="3"/>
      <path id="Path_571" data-name="Path 571" d="M1471.695,49.922l12.982,5.747a7.444,7.444,0,0,1,4.434,6.805v13.41" transform="translate(-22.889 -20.56)" fill="none" stroke="#000" stroke-linecap="round" stroke-linejoin="round" stroke-width="3"/>
      <path id="Path_572" data-name="Path 572" d="M1402.053,75.68V62.27a7.444,7.444,0,0,1,4.434-6.805l15-6.488" transform="translate(-7.822 -20.355)" fill="none" stroke="#000" stroke-linecap="round" stroke-linejoin="round" stroke-width="3"/>
      <line id="Line_38" data-name="Line 38" y2="8.475" transform="translate(1409.204 46.85)" fill="none" stroke="#000" stroke-linecap="round" stroke-linejoin="round" stroke-width="3"/>
      <line id="Line_39" data-name="Line 39" y2="8.475" transform="translate(1451.591 46.85)" fill="none" stroke="#000" stroke-linecap="round" stroke-linejoin="round" stroke-width="3"/>
      <path id="Path_573" data-name="Path 573" d="M1499.647,21.36a10.835,10.835,0,0,0,2.433-3.617c3.768,1.119,11.752,3.381,15.895,10.009" transform="translate(-28.936 -13.598)" fill="none" stroke="#000" stroke-linecap="round" stroke-linejoin="round" stroke-width="3"/>
      <path id="Path_574" data-name="Path 574" d="M1518.414,15.9a15.349,15.349,0,1,0-27.531,9.311,12.1,12.1,0,0,0,23.616.9A15.276,15.276,0,0,0,1518.414,15.9Z" transform="translate(-26.355 -9.879)" fill="none" stroke="#000" stroke-linecap="round" stroke-linejoin="round" stroke-width="3"/>
      <path id="Path_575" data-name="Path 575" d="M1495.687.633a9.007,9.007,0,0,1-.222-2,9.011,9.011,0,0,1,9.011-9.011,9.011,9.011,0,0,1,9.011,9.011A9.056,9.056,0,0,1,1513.3.452" transform="translate(-28.031 -7.515)" fill="none" stroke="#000" stroke-linecap="round" stroke-linejoin="round" stroke-width="3"/>
      <path id="Path_576" data-name="Path 576" d="M1515.251,42.31V46.4a4,4,0,0,0,2.095,3.515L1524.9,54a6.32,6.32,0,0,1,3.312,5.558V74.238" transform="translate(-32.312 -18.913)" fill="none" stroke="#000" stroke-linecap="round" stroke-linejoin="round" stroke-width="3"/>
      <path id="Path_577" data-name="Path 577" d="M1495.7,42.31V46.4a4,4,0,0,1-2.095,3.515l-6.718,3.634" transform="translate(-26.174 -18.913)" fill="none" stroke="#000" stroke-linecap="round" stroke-linejoin="round" stroke-width="3"/>
      <path id="Path_578" data-name="Path 578" d="M1512.791,52.026l-4.659,3.568a5.531,5.531,0,0,1-6.741-.01l-4.615-3.558" transform="translate(-28.315 -21.015)" fill="none" stroke="#000" stroke-linecap="round" stroke-linejoin="round" stroke-width="3"/>
      <line id="Line_40" data-name="Line 40" y2="11.789" transform="translate(1487.042 44.869)" fill="none" stroke="#fff" stroke-linecap="round" stroke-linejoin="round" stroke-width="3"/>
      <g id="Group_245" data-name="Group 245" transform="translate(1365.898 -8.53)">
        <path id="Path_579" data-name="Path 579" d="M1401.388,18.536v4.211a12.528,12.528,0,0,1-25.056,0l.068-4.259a10.718,10.718,0,0,1-1.914-6.246,10.673,10.673,0,0,1,10.673-10.673h19.094" transform="translate(-1367.756 -1.568)" fill="none" stroke="#000" stroke-linecap="round" stroke-linejoin="round" stroke-width="3"/>
        <path id="Path_580" data-name="Path 580" d="M1397.484,17.286c-3.728-2.858-12.925-2.486-12.925-2.486" transform="translate(-1369.935 -4.427)" fill="none" stroke="#000" stroke-linecap="round" stroke-linejoin="round" stroke-width="3"/>
        <path id="Path_581" data-name="Path 581" d="M1401.74,42.665v2.406a4.036,4.036,0,0,0,2.847,3.857l8.172,2.519" transform="translate(-1373.652 -10.459)" fill="none" stroke="#000" stroke-linecap="round" stroke-linejoin="round" stroke-width="3"/>
        <path id="Path_582" data-name="Path 582" d="M1380.588,42.325v2.668a4.036,4.036,0,0,1-2.852,3.859l-6.753,2.074a7.2,7.2,0,0,0-5.086,6.881V74.241" transform="translate(-1365.898 -10.386)" fill="none" stroke="#000" stroke-linecap="round" stroke-linejoin="round" stroke-width="3"/>
        <path id="Path_583" data-name="Path 583" d="M1384.644,49.445l6.728,6.463,6.669-6.794" transform="translate(-1369.953 -11.854)" fill="none" stroke="#000" stroke-linecap="round" stroke-linejoin="round" stroke-width="3"/>
        <line id="Line_41" data-name="Line 41" y2="12.759" transform="translate(8.576 51.096)" fill="none" stroke="#000" stroke-linecap="round" stroke-linejoin="round" stroke-width="3"/>
        <line id="Line_42" data-name="Line 42" y2="19.802" transform="translate(21.419 44.054)" fill="none" stroke="#000" stroke-linecap="round" stroke-linejoin="round" stroke-width="3"/>
      </g>
    </g>
  </g>
</svg>
