<svg xmlns="http://www.w3.org/2000/svg" width="124.937" height="121.077" viewBox="0 0 124.937 121.077">
  <g id="Group_599" data-name="Group 599" transform="translate(-1025.888 -2573.5)">
    <rect id="Rectangle_192" data-name="Rectangle 192" width="55" height="55" transform="translate(1028 2575)" fill="#ffcc48"/>
    <g id="Group_244" data-name="Group 244" transform="translate(17.269 2812.569)">
      <g id="Group_241" data-name="Group 241" transform="translate(1032.782 -237.569)">
        <path id="Path_558" data-name="Path 558" d="M1036.473-207.617s50.764-29.5,49.974-29.952l0,59.857" transform="translate(-1036.473 237.569)" fill="none" stroke="#000" stroke-linecap="round" stroke-linejoin="round" stroke-width="3"/>
        <path id="Path_559" data-name="Path 559" d="M1094.81-237.569l0,59.857c3.02,1.7,49.227,26.687,49.227,26.687v-56.592S1094.019-237.112,1094.81-237.569Z" transform="translate(-1044.837 237.569)" stroke="#000" stroke-linecap="round" stroke-linejoin="round" stroke-width="3"/>
      </g>
      <path id="Path_560" data-name="Path 560" d="M1036.476-202.6l49.973,29.9,0,58.219-37.8-23.845" transform="translate(-3.692 -5.014)" fill="none" stroke="#000" stroke-linecap="round" stroke-linejoin="round" stroke-width="3"/>
      <path id="Path_561" data-name="Path 561" d="M1144.032-202.6l0,56.592c-3.02,1.7-49.216,31.533-49.216,31.533l0-58.219S1144.823-202.146,1144.032-202.6Z" transform="translate(-12.056 -5.014)" fill="#fff" stroke="#000" stroke-linecap="round" stroke-linejoin="round" stroke-width="3"/>
      <path id="Path_562" data-name="Path 562" d="M1141.112-179.988l-.044,41.176c-3.02,1.7-21.175,13.574-21.175,13.574v-41.707a3.531,3.531,0,0,1,1.688-3.012l17.89-10.952A1.078,1.078,0,0,1,1141.112-179.988Z" transform="translate(-15.653 -8.102)" stroke="#000" stroke-linecap="round" stroke-linejoin="round" stroke-width="3"/>
      <g id="Group_242" data-name="Group 242" transform="translate(1010.731 -192.487)">
        <path id="Path_563" data-name="Path 563" d="M1010.731-167.463a11.233,11.233,0,0,1,4.092,8.681A11.224,11.224,0,0,1,1011-150.33" transform="translate(-1010.731 182.435)" fill="none" stroke="#000" stroke-linecap="round" stroke-linejoin="round" stroke-width="3"/>
        <path id="Path_564" data-name="Path 564" d="M1017.059-172.684a18.158,18.158,0,0,1,5.438,13.213,18.235,18.235,0,0,1-5.081,12.865" transform="translate(-1011.638 183.183)" fill="none" stroke="#000" stroke-linecap="round" stroke-linejoin="round" stroke-width="3"/>
        <path id="Path_565" data-name="Path 565" d="M1023.407-177.82a24.375,24.375,0,0,1,7.217,17.672,24.493,24.493,0,0,1-6.743,17.205" transform="translate(-1012.549 183.92)" fill="none" stroke="#000" stroke-linecap="round" stroke-linejoin="round" stroke-width="3"/>
        <path id="Path_566" data-name="Path 566" d="M1029.281-184.941a32.506,32.506,0,0,1,9.985,23.853,32.629,32.629,0,0,1-9.33,23.224" transform="translate(-1013.391 184.941)" fill="none" stroke="#000" stroke-linecap="round" stroke-linejoin="round" stroke-width="3"/>
      </g>
      <g id="Group_243" data-name="Group 243" transform="translate(1044.989 -186.954)">
        <line id="Line_35" data-name="Line 35" x2="25.561" y2="31.546" transform="translate(0)" fill="#fff" stroke="#000" stroke-linecap="round" stroke-linejoin="round" stroke-width="3"/>
        <line id="Line_36" data-name="Line 36" x2="12.781" y2="15.773" transform="translate(2.014 15.773)" fill="#fff" stroke="#000" stroke-linecap="round" stroke-linejoin="round" stroke-width="3"/>
        <line id="Line_37" data-name="Line 37" x2="4.347" y2="5.365" transform="translate(20.494 38.252)" fill="#fff" stroke="#000" stroke-linecap="round" stroke-linejoin="round" stroke-width="3"/>
      </g>
      <g id="Ellipse_56" data-name="Ellipse 56" transform="translate(1119.568 -161.247) rotate(-85.21)" fill="#fff" stroke="#000" stroke-linecap="round" stroke-linejoin="round" stroke-width="1">
        <ellipse cx="2.152" cy="1.358" rx="2.152" ry="1.358" stroke="none"/>
        <ellipse cx="2.152" cy="1.358" rx="2.652" ry="1.858" fill="none"/>
      </g>
      <path id="Path_567" data-name="Path 567" d="M1094.814-167.692" transform="translate(-12.057 -10.02)" stroke="#000" stroke-linecap="round" stroke-linejoin="round" stroke-width="3"/>
    </g>
  </g>
</svg>
