<svg xmlns="http://www.w3.org/2000/svg" width="130" height="132.591" viewBox="0 0 130 132.591">
  <g id="Group_601" data-name="Group 601" transform="translate(-1455 -2207.409)">
    <rect id="Rectangle_190" data-name="Rectangle 190" width="55" height="55" transform="translate(1530 2285)" fill="#ffcc48"/>
    <g id="Group_361" data-name="Group 361" transform="translate(1358.811 2122.786)">
      <path id="Path_643" data-name="Path 643" d="M192.567,140.146h-8.41a5.559,5.559,0,0,0,.5-1.97l0-.769h1.977a4.1,4.1,0,0,0,4.1-4.1V129.77a4.1,4.1,0,0,0-4.1-4.1h-3.314a1.48,1.48,0,0,0-.657.158h-10.92a2.243,2.243,0,0,0-2.24,2.24v9.751a5.551,5.551,0,0,0,.509,2.328H140.562c.009-.043.025-.083.031-.127l1.824-12.5a3.072,3.072,0,0,0-3.04-3.523h-5.3v-2.965h2.1a7.231,7.231,0,0,0,7.223-7.223v-2.1a3,3,0,0,0-3-3h-2.1a7.189,7.189,0,0,0-4.63,1.687,7.234,7.234,0,0,0-7.08-5.8h-3.677a3,3,0,0,0-3,3v3.677a7.233,7.233,0,0,0,7.223,7.223h3.677c.088,0,.17-.019.256-.026V124h-5.295a3.007,3.007,0,0,0-.375.021,3.078,3.078,0,0,0-2.694,3.414l1.487,12.5c.009.072.032.139.045.209H108.363a12.188,12.188,0,0,0-12.174,12.173V189.3a12.187,12.187,0,0,0,12.174,12.174h4.892l-1.72,9.151a4.374,4.374,0,0,0,4.3,5.181,5.247,5.247,0,0,0,4.9-3.417l4.032-10.915h51.4l4.032,10.915a5.245,5.245,0,0,0,4.9,3.417,4.373,4.373,0,0,0,4.3-5.181l-1.719-9.151h4.892A12.186,12.186,0,0,0,204.74,189.3v-36.98A12.188,12.188,0,0,0,192.567,140.146ZM122.921,107.6H126.6a4.227,4.227,0,0,1,4.223,4.223V115.5h-3.677a4.229,4.229,0,0,1-4.223-4.223Zm15.387,4.11h2.1v2.1a4.227,4.227,0,0,1-4.223,4.223h-2.1v-2.1A4.228,4.228,0,0,1,138.308,111.714ZM132.567,127h6.81a.082.082,0,0,1,.072.083l-1.9,12.568-10.372-.065-1.488-12.5a.083.083,0,0,1,.069-.082h6.806Zm61.14,59.976a2.951,2.951,0,0,1-2.948,2.947H152.014V172.229h13.511a6.722,6.722,0,0,0,6.609,5.555h3.72a6.722,6.722,0,0,0,6.609-5.555h11.244Zm-2.948-35.438a2.951,2.951,0,0,1,2.948,2.948v14.745H152.014V151.535h13.511a6.722,6.722,0,0,0,6.609,5.557h3.72a6.722,6.722,0,0,0,6.609-5.557Zm-11.374,20.694a3.724,3.724,0,0,1-3.531,2.555h-3.72a3.722,3.722,0,0,1-3.53-2.555Zm-3.531-18.137h-3.72a3.72,3.72,0,0,1-3.53-2.557h10.781A3.723,3.723,0,0,1,175.854,154.092Zm-56.067-2.557a6.722,6.722,0,0,0,6.609,5.557h3.721a6.722,6.722,0,0,0,6.609-5.557h12.241v17.693H107.274V154.483a2.951,2.951,0,0,1,2.948-2.948Zm13.86,20.694a3.723,3.723,0,0,1-3.531,2.555H126.4a3.724,3.724,0,0,1-3.531-2.555Zm-10.782-20.694h10.783a3.723,3.723,0,0,1-3.532,2.557H126.4A3.721,3.721,0,0,1,122.865,151.535Zm-15.591,20.694h12.513a6.722,6.722,0,0,0,6.609,5.555h3.721a6.722,6.722,0,0,0,6.609-5.555h12.241V189.92H110.222a2.951,2.951,0,0,1-2.948-2.947Zm80.462-42.459v3.537a1.1,1.1,0,0,1-1.1,1.1H184.67v-5.738h1.967A1.1,1.1,0,0,1,187.736,129.77Z"/>
      <path id="Path_644" data-name="Path 644" d="M152.229,103.873a6.647,6.647,0,0,1,6.639,6.638,1.5,1.5,0,0,0,3,0,6.645,6.645,0,0,1,6.637-6.637,1.5,1.5,0,0,0,0-3,6.647,6.647,0,0,1-6.637-6.639,1.5,1.5,0,0,0-3,0,6.647,6.647,0,0,1-6.639,6.639,1.5,1.5,0,0,0,0,3Zm8.139-4.48a9.728,9.728,0,0,0,2.98,2.98,9.692,9.692,0,0,0-2.98,2.979,9.725,9.725,0,0,0-2.98-2.979A9.739,9.739,0,0,0,160.368,99.393Z"/>
      <path id="Path_645" data-name="Path 645" d="M165.092,89.032A2.914,2.914,0,0,1,168,91.943a.5.5,0,0,0,1,0,2.915,2.915,0,0,1,2.911-2.911.5.5,0,0,0,0-1A2.914,2.914,0,0,1,169,85.122a.5.5,0,0,0-1,0h0a2.914,2.914,0,0,1-2.91,2.909h0a.5.5,0,0,0,0,1Z"/>
      <path id="Path_646" data-name="Path 646" d="M171.916,106.6a.5.5,0,0,0-.5.5,2.913,2.913,0,0,1-2.909,2.91h0a.5.5,0,0,0,0,1h0a2.914,2.914,0,0,1,2.909,2.911.5.5,0,0,0,1,0,2.914,2.914,0,0,1,2.911-2.911.5.5,0,0,0,0-1,2.914,2.914,0,0,1-2.911-2.91A.5.5,0,0,0,171.916,106.6Z"/>
    </g>
  </g>
</svg>
