<svg xmlns="http://www.w3.org/2000/svg" width="27" height="27" viewBox="0 0 27 27">
  <g id="Group_141" data-name="Group 141" transform="translate(-0.134)">
    <rect id="Rectangle_99" data-name="Rectangle 99" width="27" height="27" transform="translate(0.134)" fill="#fff"/>
    <g id="Icon_feather-instagram" data-name="Icon feather-instagram" transform="translate(5.617 5.617)">
      <path id="Path_425" data-name="Path 425" d="M6.975,3h7.95A3.975,3.975,0,0,1,18.9,6.975v7.95A3.975,3.975,0,0,1,14.925,18.9H6.975A3.975,3.975,0,0,1,3,14.925V6.975A3.975,3.975,0,0,1,6.975,3Z" transform="translate(-3 -3)" fill="none" stroke="#000" stroke-linecap="round" stroke-linejoin="round" stroke-width="2"/>
      <path id="Path_426" data-name="Path 426" d="M18.391,14.649a3.18,3.18,0,1,1-2.679-2.679A3.18,3.18,0,0,1,18.391,14.649Z" transform="translate(-7.26 -7.199)" fill="none" stroke="#000" stroke-linecap="round" stroke-linejoin="round" stroke-width="2"/>
      <path id="Path_427" data-name="Path 427" d="M26.25,9.75h0" transform="translate(-13.927 -6.172)" fill="none" stroke="#000" stroke-linecap="round" stroke-linejoin="round" stroke-width="2"/>
    </g>
  </g>
</svg>
