<svg xmlns="http://www.w3.org/2000/svg" width="290" height="144.99" viewBox="0 0 290 144.99">
  <g id="Group_576" data-name="Group 576" transform="translate(-617.05 -357.725)">
    <rect id="Rectangle_248" data-name="Rectangle 248" width="144.995" height="8.528" transform="translate(617.05 494.186)" fill="#020203"/>
    <rect id="Rectangle_249" data-name="Rectangle 249" width="144.995" height="8.528" transform="translate(617.05 477.13)" fill="#020203"/>
    <rect id="Rectangle_250" data-name="Rectangle 250" width="144.995" height="8.528" transform="translate(617.05 460.068)" fill="#020203"/>
    <rect id="Rectangle_251" data-name="Rectangle 251" width="144.995" height="8.528" transform="translate(617.05 443.012)" fill="#020203"/>
    <rect id="Rectangle_252" data-name="Rectangle 252" width="144.995" height="8.528" transform="translate(617.05 425.956)" fill="#020203"/>
    <rect id="Rectangle_253" data-name="Rectangle 253" width="144.995" height="8.533" transform="translate(617.05 408.894)" fill="#020203"/>
    <rect id="Rectangle_254" data-name="Rectangle 254" width="144.995" height="8.528" transform="translate(617.05 391.838)" fill="#020203"/>
    <rect id="Rectangle_255" data-name="Rectangle 255" width="144.995" height="8.528" transform="translate(617.05 374.782)" fill="#020203"/>
    <rect id="Rectangle_256" data-name="Rectangle 256" width="144.995" height="8.528" transform="translate(617.05 357.725)" fill="#020203"/>
    <rect id="Rectangle_257" data-name="Rectangle 257" width="8.528" height="144.99" transform="translate(762.06 357.725)" fill="#020203"/>
    <rect id="Rectangle_258" data-name="Rectangle 258" width="8.528" height="144.99" transform="translate(779.117 357.725)" fill="#020203"/>
    <rect id="Rectangle_259" data-name="Rectangle 259" width="8.528" height="144.99" transform="translate(796.173 357.725)" fill="#020203"/>
    <rect id="Rectangle_260" data-name="Rectangle 260" width="8.528" height="144.99" transform="translate(813.234 357.725)" fill="#020203"/>
    <rect id="Rectangle_261" data-name="Rectangle 261" width="8.528" height="144.99" transform="translate(830.291 357.725)" fill="#020203"/>
    <rect id="Rectangle_262" data-name="Rectangle 262" width="8.528" height="144.99" transform="translate(847.347 357.725)" fill="#020203"/>
    <rect id="Rectangle_263" data-name="Rectangle 263" width="8.523" height="144.99" transform="translate(864.409 357.725)" fill="#020203"/>
    <rect id="Rectangle_264" data-name="Rectangle 264" width="8.528" height="144.99" transform="translate(881.465 357.725)" fill="#020203"/>
    <rect id="Rectangle_265" data-name="Rectangle 265" width="8.528" height="144.99" transform="translate(898.522 357.725)" fill="#020203"/>
  </g>
</svg>
