<svg xmlns="http://www.w3.org/2000/svg" width="123.24" height="122.315" viewBox="0 0 123.24 122.315">
  <g id="Group_602" data-name="Group 602" transform="translate(-1027.513 -2218.011)">
    <rect id="Rectangle_189" data-name="Rectangle 189" width="55" height="55" transform="translate(1094 2220)" fill="#ffcc48"/>
    <g id="Group_236" data-name="Group 236" transform="translate(-270.211 2454.104)">
      <g id="Group_235" data-name="Group 235" transform="translate(1299.224 -224.417)">
        <path id="Path_528" data-name="Path 528" d="M1322.819-210.976h59.216l-9.049,45.534h-41.412Z" transform="translate(-1300.824 222.816)" fill="none" stroke="#000" stroke-linecap="round" stroke-linejoin="round" stroke-width="3"/>
        <path id="Path_529" data-name="Path 529" d="M1402.469-210.976l-22.011,27.6,5.486-27.6Z" transform="translate(-1304.732 222.816)" fill="none" stroke="#000" stroke-linecap="round" stroke-linejoin="round" stroke-width="3"/>
        <path id="Path_530" data-name="Path 530" d="M1299.224-202.668v25.987a5.194,5.194,0,0,0,5.194,5.194h6.389a3.582,3.582,0,0,0,3.582-3.581h0a3.582,3.582,0,0,0-2.216-3.311l-.05-.021a6.191,6.191,0,0,1-3.831-5.724v-13.219a5.56,5.56,0,0,1,5.56-5.56h9.006l-1.638-8.072h-13.688A8.308,8.308,0,0,0,1299.224-202.668Z" transform="translate(-1299.224 222.816)" stroke="#000" stroke-linecap="round" stroke-linejoin="round" stroke-width="3"/>
        <rect id="Rectangle_145" data-name="Rectangle 145" width="33.313" height="10.25" transform="translate(34.889 57.373)" stroke="#000" stroke-linecap="round" stroke-linejoin="round" stroke-width="3"/>
        <path id="Path_531" data-name="Path 531" d="M1347.821-223.677l-25,11.84h59.216l-24.425-11.84Z" transform="translate(-1300.824 223.677)" fill="none" stroke="#000" stroke-linecap="round" stroke-linejoin="round" stroke-width="3"/>
        <path id="Path_532" data-name="Path 532" d="M1331.4-151.135h41.609l8.206,41.394h-58.076Z" transform="translate(-1300.846 218.758)" fill="none" stroke="#000" stroke-linecap="round" stroke-linejoin="round" stroke-width="3"/>
        <path id="Rectangle_146" data-name="Rectangle 146" d="M0,0H45.1a0,0,0,0,1,0,0V16.011A12.093,12.093,0,0,1,33.011,28.1H12.093A12.093,12.093,0,0,1,0,16.011V0A0,0,0,0,1,0,0Z" transform="translate(72.162 71.846)" stroke="#000" stroke-linecap="round" stroke-linejoin="round" stroke-width="3"/>
        <path id="Rectangle_147" data-name="Rectangle 147" d="M0,0H49.87a0,0,0,0,1,0,0V.367a8.7,8.7,0,0,1-8.7,8.7H8.7A8.7,8.7,0,0,1,0,.367V0A0,0,0,0,1,0,0Z" transform="translate(70.37 99.95)" stroke="#000" stroke-linecap="round" stroke-linejoin="round" stroke-width="3"/>
        <g id="Group_233" data-name="Group 233" transform="translate(54.115 1.144)">
          <path id="Path_533" data-name="Path 533" d="M1357.275-222.45l5.746,10.1-1.318,28.921" transform="translate(-1357.275 222.45)" fill="none" stroke="#000" stroke-linecap="round" stroke-linejoin="round" stroke-width="3"/>
          <line id="Line_20" data-name="Line 20" x1="0.362" y2="7.576" transform="translate(3.506 48.397)" fill="none" stroke="#000" stroke-linecap="round" stroke-linejoin="round" stroke-width="3"/>
          <line id="Line_21" data-name="Line 21" x1="1.019" y1="12.344" transform="translate(4.728 66.48)" fill="none" stroke="#000" stroke-linecap="round" stroke-linejoin="round" stroke-width="3"/>
          <line id="Line_22" data-name="Line 22" x1="1.762" y1="20.861" transform="translate(6.502 87.013)" fill="none" stroke="#000" stroke-linecap="round" stroke-linejoin="round" stroke-width="3"/>
        </g>
        <g id="Group_234" data-name="Group 234" transform="translate(40.68 1.144)">
          <path id="Path_534" data-name="Path 534" d="M1351.31-222.45l-5.746,10.1,1.318,28.921" transform="translate(-1343.047 222.45)" fill="none" stroke="#000" stroke-linecap="round" stroke-linejoin="round" stroke-width="3"/>
          <line id="Line_23" data-name="Line 23" x2="0.362" y2="7.576" transform="translate(4.394 48.397)" fill="none" stroke="#000" stroke-linecap="round" stroke-linejoin="round" stroke-width="3"/>
          <line id="Line_24" data-name="Line 24" y1="12.344" x2="1.019" transform="translate(2.517 66.48)" fill="none" stroke="#000" stroke-linecap="round" stroke-linejoin="round" stroke-width="3"/>
          <line id="Line_25" data-name="Line 25" y1="20.861" x2="1.762" transform="translate(0 87.013)" fill="none" stroke="#000" stroke-linecap="round" stroke-linejoin="round" stroke-width="3"/>
        </g>
        <path id="Path_535" data-name="Path 535" d="M1416.022-137.892v8.352a4.006,4.006,0,0,1-4.007,4.006h-.767" transform="translate(-1306.82 217.86)" fill="none" stroke="#fff" stroke-linecap="round" stroke-linejoin="round" stroke-width="3"/>
        <path id="Path_536" data-name="Path 536" d="M1412.456-171.223l-2.5,4.2a3.816,3.816,0,0,0,.289,4.323h0a3.814,3.814,0,0,1,.309,4.288l-1.738,2.99" transform="translate(-1306.656 220.12)" fill="none" stroke="#000" stroke-linecap="round" stroke-linejoin="round" stroke-width="3"/>
        <path id="Path_537" data-name="Path 537" d="M1402.049-171.223l-2.5,4.2a3.816,3.816,0,0,0,.289,4.323h0a3.814,3.814,0,0,1,.309,4.288l-1.738,2.99" transform="translate(-1305.95 220.12)" fill="none" stroke="#000" stroke-linecap="round" stroke-linejoin="round" stroke-width="3"/>
        <path id="Path_538" data-name="Path 538" d="M1391.053-171.223l-2.5,4.2a3.814,3.814,0,0,0,.29,4.323h0a3.814,3.814,0,0,1,.308,4.288l-1.738,2.99" transform="translate(-1305.204 220.12)" fill="none" stroke="#000" stroke-linecap="round" stroke-linejoin="round" stroke-width="3"/>
      </g>
      <circle id="Ellipse_55" data-name="Ellipse 55" cx="6.076" cy="6.076" r="6.076" transform="translate(1344.694 -234.593)" fill="#fff" stroke="#000" stroke-linecap="round" stroke-linejoin="round" stroke-width="3"/>
    </g>
  </g>
</svg>
