<svg xmlns="http://www.w3.org/2000/svg" width="109.5" height="130.221" viewBox="0 0 109.5 130.221">
  <g id="Group_603" data-name="Group 603" transform="translate(-600.5 -2210)">
    <rect id="Rectangle_188" data-name="Rectangle 188" width="55" height="55" transform="translate(655 2232)" fill="#ffcc48"/>
    <g id="Group_221" data-name="Group 221" transform="translate(-1122.351 2470.33)">
      <g id="Capa_1" data-name="Capa 1" transform="translate(1748.717 -260.33)">
        <g id="Group_185" data-name="Group 185">
          <g id="Group_184" data-name="Group 184">
            <path id="Path_510" data-name="Path 510" d="M1764.381-260.33a13.308,13.308,0,0,0-13.3,13.3,13.312,13.312,0,0,0,13.3,13.294,13.311,13.311,0,0,0,13.3-13.3A13.308,13.308,0,0,0,1764.381-260.33Z" transform="translate(-1751.083 260.33)"/>
          </g>
        </g>
        <g id="Group_187" data-name="Group 187" transform="translate(19.924 27.74)">
          <g id="Group_186" data-name="Group 186">
            <path id="Path_511" data-name="Path 511" d="M1786.241-229.9a13.3,13.3,0,0,0-13.3,13.3,13.3,13.3,0,0,0,13.3,13.3,13.3,13.3,0,0,0,13.3-13.3v0A13.313,13.313,0,0,0,1786.241-229.9Z" transform="translate(-1772.942 229.896)"/>
          </g>
        </g>
        <path id="Path_523" data-name="Path 523" d="M1816.323-165.7h-24.74a12.752,12.752,0,0,0-12.643,12.858,12.75,12.75,0,0,0,12.643,12.642h23.853a9.816,9.816,0,0,0,5.758-1.861l0-28.515A4.88,4.88,0,0,1,1816.323-165.7Zm-19.842,16.65a5.153,5.153,0,0,1-7.286,0,5.153,5.153,0,0,1,0-7.287,5.154,5.154,0,0,1,7.287,0,5.215,5.215,0,0,1,1.51,3.646A5.155,5.155,0,0,1,1796.481-149.054Z" transform="translate(-1753.549 252.386)"/>
      </g>
      <path id="Path_524" data-name="Path 524" d="M1782.895-191.089h-52.316a6.228,6.228,0,0,1-6.228-6.228h0a6.229,6.229,0,0,1,6.228-6.228h13.72" transform="translate(0 -5.026)" fill="none" stroke="#000" stroke-linecap="round" stroke-linejoin="round" stroke-width="2.885"/>
      <path id="Path_525" data-name="Path 525" d="M1800.768-190.539a6.438,6.438,0,0,1,6.438,6.438v51.68a6.438,6.438,0,0,1-6.438,6.438h-69.98a6.438,6.438,0,0,1-6.437-6.438v-64.346" transform="translate(0 -5.626)" fill="none" stroke="#000" stroke-linecap="round" stroke-linejoin="round" stroke-width="3"/>
      <path id="Path_526" data-name="Path 526" d="M1800.768-191.144h-70.189a6.228,6.228,0,0,1-6.228-6.228h0a6.228,6.228,0,0,1,6.228-6.228h13.72" transform="translate(0 -5.021)" fill="none" stroke="#000" stroke-linecap="round" stroke-linejoin="round" stroke-width="3"/>
      <path id="Path_527" data-name="Path 527" d="M1804.813-203.6h12.411a6.671,6.671,0,0,1,6.67,6.67v63.672a6.671,6.671,0,0,1-6.67,6.67h-18.352" transform="translate(-6.596 -5.021)" fill="none" stroke="#000" stroke-linecap="round" stroke-linejoin="round" stroke-width="3"/>
      <line id="Line_14" data-name="Line 14" y2="7.907" transform="translate(1767.427 -204.021)" fill="none" stroke="#000" stroke-linecap="round" stroke-linejoin="round" stroke-width="3"/>
      <line id="Line_15" data-name="Line 15" y2="7.907" transform="translate(1755.474 -212.524)" fill="none" stroke="#000" stroke-linecap="round" stroke-linejoin="round" stroke-width="3"/>
      <line id="Line_16" data-name="Line 16" y2="16.565" transform="translate(1736.17 -178.81)" fill="none" stroke="#000" stroke-linecap="round" stroke-linejoin="round" stroke-width="3"/>
      <line id="Line_17" data-name="Line 17" y2="7.517" transform="translate(1793.891 -245.508)" fill="none" stroke="#000" stroke-linecap="round" stroke-linejoin="round" stroke-width="3"/>
      <line id="Line_18" data-name="Line 18" x2="7.661" transform="translate(1789.978 -241.749)" fill="none" stroke="#000" stroke-linecap="round" stroke-linejoin="round" stroke-width="3"/>
      <g id="Group_197" data-name="Group 197" transform="translate(1734.871 -157.004)">
        <g id="Group_196" data-name="Group 196">
          <path id="Path_516" data-name="Path 516" d="M1738.111-146.59a1.3,1.3,0,0,0-1.837,0,1.3,1.3,0,0,0,0,1.838,1.3,1.3,0,0,0,1.837,0,1.3,1.3,0,0,0,.381-.915A1.314,1.314,0,0,0,1738.111-146.59Z" transform="translate(-1735.893 146.97)"/>
        </g>
      </g>
    </g>
  </g>
</svg>
